<?xml version="1.0"?>
<svg xmlns="http://www.w3.org/2000/svg" width="23" height="23" viewBox="0 0 23 23" fill="none">
<path d="M7.65481 8.9071C8.52167 10.4711 12.1023 14.0848 14.064 15.3921C14.608 14.8667 15.1587 14.3448 15.6979 13.8117C16.2586 13.2572 16.3671 13.2292 17.0721 13.5438C18.8224 14.3247 20.5722 15.1065 22.3217 15.8892C23.0032 16.1944 23.0962 16.39 22.9043 17.1161C22.5454 18.4745 22.1845 19.8324 21.8217 21.1898C21.4845 22.4429 20.7567 22.9707 19.4527 22.9992C18.2862 23.0244 17.255 22.5532 16.2301 22.1285C8.37189 18.8744 3.08524 13.2125 0.370131 5.14284C0.125623 4.41887 -0.139969 3.70052 0.0853714 2.91297C0.321014 2.08915 0.813623 1.49627 1.64526 1.26353C3.15783 0.840303 4.68119 0.455869 6.19939 0.0525166C6.61521 -0.0578694 6.9135 0.0964549 7.08038 0.470953C7.93862 2.39684 8.78643 4.32728 9.63867 6.2558C9.80459 6.6315 9.65736 6.91644 9.39057 7.17912C8.80559 7.75499 8.22697 8.33721 7.65505 8.90746L7.65481 8.9071ZM19.3354 21.7249C19.9836 21.7321 20.3368 21.4675 20.4935 20.8939C20.8125 19.7266 21.1097 18.5534 21.4393 17.3892C21.5247 17.0879 21.4347 16.969 21.1677 16.8523C19.7555 16.2351 18.3487 15.6058 16.9473 14.9642C16.6782 14.8404 16.525 14.8908 16.3329 15.0927C15.8177 15.6347 15.2839 16.1599 14.7478 16.6818C14.3693 17.0504 14.0962 17.0784 13.6718 16.7786C10.8023 14.7573 8.30613 12.253 6.29463 9.3775C5.98471 8.93536 6.01669 8.65736 6.40077 8.26406C6.92333 7.72865 7.44732 7.1942 7.9857 6.67496C8.07437 6.60889 8.13513 6.51207 8.15603 6.40353C8.17693 6.29498 8.15647 6.18255 8.09867 6.08831C7.45775 4.67237 6.82897 3.25092 6.21232 1.82396C6.08726 1.53267 5.95009 1.50585 5.66844 1.58451C4.58846 1.88646 3.5001 2.15919 2.41592 2.44485C1.45514 2.69783 1.15337 3.19577 1.45862 4.13668C4.30789 12.9175 10.0577 18.8149 18.8994 21.6266C19.0429 21.6672 19.1884 21.7001 19.3354 21.7252" fill="#EC1B30"/>
<path d="M12.041 0.00689274C17.1636 0.0770513 21.9951 4.26825 22.8211 9.47806C22.9113 10.0843 22.9703 10.6947 22.998 11.307C23.027 11.8338 22.7682 12.1477 22.3575 12.1638C21.929 12.1806 21.6697 11.8669 21.6548 11.3138C21.5358 6.93643 18.7812 3.18342 14.6346 1.86681C13.7058 1.57181 12.7008 1.5159 11.7303 1.35379C11.613 1.33416 11.4869 1.35702 11.3731 1.32817C11.0257 1.23993 10.8315 1.00935 10.846 0.647179C10.8418 0.487306 10.8994 0.331977 11.007 0.213579C11.1146 0.0951813 11.2638 0.022853 11.4234 0.0116791C11.6289 -0.00267213 11.8351 -0.00406847 12.0408 0.00749195" fill="#EC1B30"/>
<path d="M20.2582 11.045C20.2582 11.1795 20.2642 11.3142 20.257 11.4483C20.2345 11.8769 19.9815 12.1658 19.6086 12.1607C19.2022 12.1554 18.9737 11.9265 18.9271 11.529C18.8779 11.1142 18.8665 10.6937 18.7996 10.2822C18.5296 8.59933 17.6865 7.06125 16.4128 5.92787C15.1391 4.7945 13.5129 4.13534 11.8091 4.06178C11.7343 4.05843 11.6594 4.05771 11.5849 4.0528C11.0962 4.01892 10.8224 3.75564 10.8431 3.34032C10.8628 2.94738 11.1472 2.69776 11.6098 2.70171C12.7661 2.6982 13.9094 2.94413 14.9618 3.42269C18.2028 4.92966 19.9231 7.50781 20.2578 11.045" fill="#EC1B30"/>
<path d="M17.5399 11.1421C17.5399 11.3059 17.6038 11.5153 17.5263 11.6236C17.3765 11.8332 17.173 12.0727 16.9443 12.1405C16.6308 12.2336 16.3677 12.0239 16.2686 11.6975C16.2251 11.5236 16.201 11.3454 16.1968 11.1662C16.1214 10.0215 15.6313 8.94353 14.8183 8.13383C14.0052 7.32413 12.9248 6.83818 11.7792 6.7669C11.7193 6.76295 11.6594 6.76235 11.5995 6.75816C11.1035 6.72284 10.8287 6.4701 10.8406 6.061C10.8526 5.64041 11.1658 5.39246 11.6824 5.40791C12.6293 5.42451 13.5571 5.67636 14.3823 6.14074C16.315 7.24592 17.3613 8.92482 17.5389 11.1422" fill="#EC1B30"/>
</svg>
